<?xml version="1.0" encoding="UTF-8"?>
<svg version="1.1" xmlns="http://www.w3.org/2000/svg" width="512" height="512">
<path d="M0 0 C3.71134711 3.01841282 7.05287405 6.31289616 10.35839844 9.76757812 C11.48568359 10.93933594 11.48568359 10.93933594 12.63574219 12.13476562 C24.61710214 25.79489579 28.3020654 43.00776773 27.49755859 60.71484375 C26.93398788 69.02800611 24.3764138 76.35874641 20.85839844 83.83007812 C20.58125 84.44246338 20.30410156 85.05484863 20.01855469 85.68579102 C17.76181192 90.16123499 14.72265139 93.71347882 11.31876469 97.35492992 C10.83136956 97.88125478 10.34397443 98.40757964 9.84180975 98.94985373 C8.35045183 100.55868723 6.85476562 102.16340441 5.35839844 103.76757812 C4.10632089 105.11602072 4.10632089 105.11602072 2.82894886 106.49170458 C0.31563343 109.19418432 -2.20408576 111.89053443 -4.72621155 114.58479309 C-5.19433165 115.0849022 -5.66245176 115.58501131 -6.14475732 116.10027524 C-9.80075117 120.00515092 -13.46072282 123.9062817 -17.12231445 127.8059082 C-17.67665197 128.39638101 -18.23098948 128.98685381 -18.8021251 129.59521973 C-40.88145484 153.10794076 -63.21009201 176.37509615 -85.66879535 199.5254343 C-89.26362476 203.23131494 -92.85643769 206.93914455 -96.44799805 210.64819336 C-97.16251845 211.38601851 -97.87703885 212.12384366 -98.61321139 212.88402715 C-108.62767684 223.23366666 -118.52442194 233.68465223 -128.33556132 244.22709142 C-145.28024184 262.43453894 -162.4279899 280.42206265 -179.98925781 298.03710938 C-180.66930423 298.72011244 -181.34935065 299.40311551 -182.05000454 300.10681564 C-235.23087723 353.42326182 -282.91584646 377.2823448 -359.64160156 377.76757812 C-360.63160156 377.76757812 -361.62160156 377.76757812 -362.64160156 377.76757812 C-362.49971342 377.05251319 -362.35782528 376.33744825 -362.2116375 375.60071468 C-361.02733949 368.94182576 -360.52174168 362.64276612 -360.55178833 355.89613342 C-360.49644399 284.19912876 -329.98573587 242.79290762 -281.32128906 194.20117188 C-280.61664855 193.49707249 -279.91200803 192.7929731 -279.18601477 192.06753737 C-261.64889468 174.56742782 -243.75407456 157.45263446 -225.7023907 140.48550041 C-214.02320238 129.50786879 -202.45429915 118.42559683 -190.97460938 107.23950195 C-190.21271415 106.49715116 -189.45081892 105.75480037 -188.66583596 104.98995411 C-185.60153305 102.00346088 -182.5379593 99.01622237 -179.47532915 96.02801373 C-155.53405564 72.668983 -131.48364754 49.42509215 -107.18302202 26.43979108 C-105.35643312 24.70990344 -103.53299719 22.97675565 -101.7104702 21.24258995 C-98.88896241 18.55886195 -96.0588388 15.88455416 -93.22151674 13.2175535 C-92.20230207 12.25718556 -91.18576744 11.29396274 -90.17236184 10.3274669 C-65.69007074 -12.99755803 -28.84218146 -21.65308329 0 0 Z M-64.64160156 31.76757812 C-65.29386719 32.43273437 -65.94613281 33.09789062 -66.61816406 33.78320312 C-70.82368865 38.00859552 -70.82368865 38.00859552 -71.64160156 43.76757812 C-69.9535718 46.03833118 -69.9535718 46.03833118 -67.60253906 48.26074219 C-66.72162598 49.14135315 -65.84071289 50.02196411 -64.93310547 50.92926025 C-63.96114868 51.8807903 -62.98897556 52.83209943 -62.01660156 53.78320312 C-61.02924147 54.763102 -60.04276152 55.74388845 -59.05712891 56.7255249 C-56.46177558 59.3056126 -53.85463492 61.87346326 -51.24487305 64.43896484 C-48.5834465 67.05945884 -45.93332074 69.69132635 -43.28222656 72.32226562 C-38.0796909 77.48191404 -32.8646528 82.62868962 -27.64160156 87.76757812 C-17.40830095 82.85312991 -9.62788676 73.38979715 -5.39941406 62.97851562 C-2.78474659 55.35015587 -3.65077229 49.17446939 -6.64160156 41.76757812 C-9.5754051 36.80785294 -13.42178815 32.67090553 -17.64160156 28.76757812 C-19.00285156 27.49914062 -19.00285156 27.49914062 -20.39160156 26.20507812 C-27.08897415 20.84718005 -33.72411109 18.97130358 -42.29394531 19.25195312 C-50.96434719 20.58741759 -58.58447616 25.56271795 -64.64160156 31.76757812 Z M-99.11469615 66.99227571 C-99.98387598 67.86259471 -99.98387598 67.86259471 -100.87061501 68.75049591 C-101.87458098 69.74848874 -101.87458098 69.74848874 -102.8988291 70.76664305 C-103.63617454 71.50981417 -104.37351999 72.2529853 -105.13320923 73.01867676 C-106.30571025 74.18861451 -106.30571025 74.18861451 -107.50189817 75.38218737 C-110.14000332 78.01697817 -112.77086115 80.65889119 -115.40185547 83.30078125 C-117.28347206 85.18296154 -119.16548013 87.06474251 -121.04798889 88.94602966 C-125.11043151 93.00742167 -129.16918535 97.07247042 -133.22548294 101.13999939 C-139.09026988 107.02101463 -144.96054722 112.89652393 -150.83219545 118.77068788 C-160.3575397 128.30041344 -169.87840562 137.83460025 -179.39648438 147.37158203 C-188.64447163 156.63791683 -197.89454933 165.90215653 -207.14746094 175.16357422 C-207.71745165 175.73409037 -208.28744235 176.30460653 -208.87470551 176.89241105 C-211.73408747 179.75440302 -214.59351073 182.61635371 -217.45295453 185.47828388 C-241.18891124 209.23498665 -264.91761197 232.99892473 -288.64160156 256.76757812 C-285.80102381 259.68868386 -283.16656928 261.77909244 -279.64160156 263.83007812 C-265.40993955 272.71776053 -253.46486454 285.72753031 -245.33300781 300.31054688 C-244.77484375 301.12136719 -244.21667969 301.9321875 -243.64160156 302.76757812 C-240.70460932 303.07157542 -240.70460932 303.07157542 -239.05072051 301.54929256 C-238.47468477 300.97211766 -237.89864903 300.39494276 -237.30515766 299.80027771 C-236.63733936 299.13843255 -235.96952105 298.47658739 -235.28146583 297.79468632 C-234.55092418 297.05540614 -233.82038252 296.31612597 -233.06770325 295.55444336 C-232.28926502 294.77856841 -231.5108268 294.00269346 -230.70879954 293.20330715 C-228.08521173 290.58468636 -225.47253475 287.95543862 -222.85961914 285.32617188 C-220.98792001 283.4536271 -219.11563645 281.58168451 -217.24259949 279.71047974 C-213.20253999 275.67199551 -209.16802223 271.62804208 -205.13718605 267.58035278 C-199.30922645 261.72804205 -193.47302895 255.88400439 -187.63476881 250.04197156 C-178.16347838 240.56411054 -168.69891081 231.07956533 -159.23852539 221.59082031 C-150.04704791 212.37181799 -140.8524339 203.1559627 -131.65356445 193.94433594 C-130.80345297 193.0930422 -130.80345297 193.0930422 -129.93616752 192.2245506 C-127.09305748 189.37752554 -124.24988546 186.53056237 -121.40668261 183.68362999 C-97.80870385 160.05453639 -74.22161724 136.41459746 -50.64160156 112.76757812 C-52.26667873 109.33291057 -54.08780252 107.06828274 -56.78417969 104.36621094 C-58.06560852 103.07532562 -58.06560852 103.07532562 -59.3729248 101.75836182 C-60.75888855 100.37847076 -60.75888855 100.37847076 -62.17285156 98.97070312 C-63.12956527 98.01264176 -64.08598196 97.0542837 -65.04211426 96.09564209 C-67.04290719 94.09190549 -69.04726106 92.09181924 -71.05419922 90.09423828 C-73.63022264 87.52963983 -76.19712255 84.95612602 -78.76145172 82.37984085 C-80.73262617 80.40145367 -82.70852153 78.42783713 -84.68589783 76.45565033 C-86.09672927 75.04680623 -87.50352546 73.63392495 -88.91027832 72.2210083 C-89.76456421 71.37302673 -90.6188501 70.52504517 -91.49902344 69.65136719 C-92.62914856 68.52362885 -92.62914856 68.52362885 -93.78210449 67.37310791 C-96.02027379 65.44062437 -96.79211925 65.0613377 -99.11469615 66.99227571 Z M-310.64160156 284.76757812 C-312.06849049 291.70875041 -313.49234569 298.65053994 -314.9140625 305.59277344 C-315.39838427 307.95587362 -315.8834083 310.31882998 -316.36914062 312.68164062 C-317.06596251 316.07189241 -317.76028252 319.46264821 -318.45410156 322.85351562 C-318.67283936 323.91500824 -318.89157715 324.97650085 -319.11694336 326.07015991 C-319.31715088 327.0510257 -319.5173584 328.03189148 -319.72363281 329.04248047 C-319.90128174 329.90851898 -320.07893066 330.7745575 -320.26196289 331.6668396 C-320.70088028 333.73980375 -320.70088028 333.73980375 -320.64160156 335.76757812 C-303.58655794 332.68091695 -286.59050268 329.39332324 -269.64160156 325.76757812 C-274.70389604 309.03999638 -288.70958594 295.61079312 -303.64160156 287.26757812 C-306.97358247 285.35293361 -306.97358247 285.35293361 -310.64160156 284.76757812 Z " fill="#FDFDFD" transform="translate(421.6416015625,75.232421875)"/>
</svg>
