<?xml version="1.0" encoding="UTF-8"?>
<svg version="1.1" viewBox="0 0 2048 2048" width="1280" height="1280" xmlns="http://www.w3.org/2000/svg">
<path transform="translate(56,108)" d="m0 0h1934l16 3 15 8 11 10 7 10 5 10 4 11v1728l-6 15-7 12-12 12-10 6-10 4-8 2-13 1h-1919l-16-2-13-5-11-8-11-11-8-14-4-12v-1729l6-15 6-10 9-10 9-7 10-5 9-3zm72 128v408h1792v-408zm0 536v1040h1792v-1040z" fill="#FDFDFD"/>
<path transform="translate(623,891)" d="m0 0 18 2 11 4 10 6 10 9 7 9 7 14 2 8 1 10 1 451 3 23 6 21 8 20 10 18 9 12 11 13 11 11 16 12 13 8 16 8 15 6 24 6 14 2h31l24-4 21-6 18-8 16-9 16-12 10-9 11-11 1-2h2l2-4 7-10 8-13 10-21 6-19 4-20 1-9 1-453 2-15 5-13 9-13 8-8 11-7 13-5 17-2 16 2 13 5 10 7 9 8 7 10 6 13 2 8 1 79v147l-1 245-3 25-5 25-8 27-11 27-10 20-11 18-12 17-9 11-12 14-16 16-8 7-18 14-15 10-15 9-21 11-25 10-26 8-29 6-25 3h-45l-25-3-24-5-24-7-26-10-17-8-21-12-16-11-13-10-10-9-8-7-19-19-9-11-13-17-12-19-10-18-11-25-9-27-6-25-4-27-1-13v-464l3-12 7-14 9-11 10-8 12-6 11-3z" fill="#FDFDFD"/>
<path transform="translate(1421,891)" d="m0 0 18 2 11 4 10 6 10 9 8 10 6 13 3 14v683l-2 13-5 13-7 11-9 9-11 7-13 5-9 2h-18l-12-3-12-6-10-8-9-10-8-16-2-6-1-7-1-22v-608l1-59 3-13 7-14 9-11 10-8 12-6 11-3z" fill="#FEFEFE"/>
<path transform="translate(1208,376)" d="m0 0h531l13 2 11 4 13 9 8 8 7 11 5 11 2 9v19l-3 12-7 14-8 10-9 8-12 6-14 4-13 1h-518l-16-2-12-5-11-7-10-10-7-11-5-13-2-10v-12l3-14 4-10 10-14 10-9 16-8z" fill="#FDFDFD"/>
<path transform="translate(306,376)" d="m0 0h14l15 3 12 6 9 7 9 9 7 12 4 11 2 16-2 15-5 14-9 13-8 8-11 7-14 5-14 2-14-1-13-4-12-7-12-11-9-14-5-15-1-14 2-14 5-13 7-11 7-8 13-9 12-5z" fill="#FDFDFD"/>
<path transform="translate(523,376)" d="m0 0h14l12 2 12 5 11 8 10 10 8 14 4 14 1 14-3 16-4 10-8 12-10 10-12 7-16 5-15 1-14-2-14-6-12-9-9-10-6-10-5-15-1-15 3-16 5-12 8-11 2-3h2v-2l12-9 14-6z" fill="#FDFDFD"/>
<path transform="translate(740,376)" d="m0 0h14l12 2 12 5 11 8 10 10 8 14 4 13v23l-4 13-6 12-11 12-11 8-12 5-8 2-16 1-16-3-16-8-12-11-8-11-5-12-2-8v-22l5-16 6-10 9-10 8-7 14-7z" fill="#FDFDFD"/>
</svg>
