<?xml version="1.0" encoding="UTF-8"?>
<svg version="1.1" viewBox="0 0 2048 2048" width="1280" height="1280" xmlns="http://www.w3.org/2000/svg">
<path transform="translate(1e3)" d="m0 0h39l30 5 26 7 16 6 25 12 19 12 14 11 14 12 12 12 9 11 12 16 9 15 8 15 10 25 6 20 4 20 2 17v41l-4 26-5 20-7 21-14 29-9 14-10 14-12 14-18 18-14 11-11 8-8 5 3 2 22 10 23 13 21 14 17 13 14 12 24 24 9 11 12 15 13 20 9 15 8 16 7 15 9 24 7 24 5 24 3 23 1 12 1 35v80l-1 13-4 13-4 8-9 12-12 9-12 5-14 3h-552l-16-4-12-7-10-9-6-8-6-12-3-12v-122l2-23 5-30 7-27 10-28 12-26 10-18 14-21 12-16 11-13 14-15 10-10 11-9 12-10 17-12 21-13 21-11 16-7h3l-5-5-9-6-14-11-14-12-8-8-9-11-10-12-12-19-12-23-8-21-6-21-4-21-2-18v-31l3-24 5-23 8-24 8-18 11-20 14-20 12-14 21-21 20-15 18-11 15-8 20-8 19-6 22-5zm13 120-16 2-20 6-19 10-12 9-8 7-7 8-10 14-9 19-5 17-2 17v15l3 19 5 16 8 16 6 9 8 10 8 8 13 10 10 6 16 7 14 4 13 2h22l17-3 16-5 16-8 16-12 14-14 9-13 8-16 5-15 3-16v-27l-4-19-5-14-9-17-10-13-12-12-11-8-14-8-15-6-12-3-17-2zm-10 415-27 4-22 6-16 6-16 8-14 8-17 12-14 12-15 15-11 14-10 15-9 16-8 18-7 21-5 23-2 23v46h420v-53l-3-24-6-23-8-22-12-23-8-12-9-12-9-10-7-8-12-11-13-10-15-10-21-11-21-8-17-5-23-4-9-1z" fill="#FEFEFE"/>
<path transform="translate(1743,725)" d="m0 0h36l27 4 24 7 20 8 17 9 16 11 14 11 7 6v2l4 2 11 12 13 17 8 13 11 21 7 19 5 17 4 23 1 12v25l-2 21-5 22-8 24-11 23-11 17-9 12-10 11-1 2h-2l-2 4-13 12-9 6-1 2 5 2 17 9 18 12 16 12 13 11 15 14 9 10 14 17 14 21 12 21 9 19 9 25 7 27 6 33v106l-6 15-8 12-5 6-10 7-11 5-11 3-72 1-401-1-14-4-10-6-10-9-7-9-6-13-2-7-1-8v-79l2-27 4-25 8-30 8-21 8-18 13-23 11-16 10-13 9-11 8-9h2l2-4 8-7 11-10 13-10 21-14 16-9 9-5-1-3-8-6-16-15-11-12-12-16-9-15-8-16-6-15-5-16-4-17-3-23v-27l3-24 5-22 8-22 9-19 8-13 11-15 11-13 15-15 14-11 13-9 15-9 21-9 21-7 26-5zm6 120-17 4-16 8-11 8-13 13-8 13-6 14-3 11-1 7v18l3 15 5 13 8 14 9 10 7 7 14 9 13 6 13 3 6 1h18l15-3 13-5 14-8 13-11 10-13 8-16 4-16 1-6v-19l-3-15-5-13-7-12-8-10-7-7-15-10-11-5-13-4-6-1zm7 347-21 2-22 5-19 7-19 10-13 9-11 9-4 3v2l-4 2-11 12-10 14-9 15-8 18-5 15-4 19-2 23v10l1 1h332l1-1v-12l-2-22-5-22-7-19-11-21-12-17-12-13-7-7-17-13-15-9-17-8-21-7-15-3-22-2z" fill="#FEFEFE"/>
<path transform="translate(270,725)" d="m0 0h33l22 3 21 5 20 7 23 11 18 12 13 10 13 12 8 8 9 11 10 14 9 15 10 21 8 24 5 25 2 22v16l-3 26-5 22-7 21-12 25-12 18-10 13-14 15-7 7-12 9-2 2 23 13 18 12 12 9 11 9 12 11 15 15 9 11 10 13 10 15 12 21 9 19 9 24 7 26 4 22 2 22v95l-4 15-6 11-9 10-9 7-11 5-11 3h-474l-13-4-9-5-10-9-8-9-6-12-3-9v-108l7-37 7-25 8-21 7-15 11-21 8-12 10-14 8-10 9-10 7-8 10-10 8-7 15-12 24-16 18-10 6-3 1-2-5-2-13-12-17-17-13-17-11-18-8-16-8-21-6-24-3-20v-38l4-26 7-24 6-15 8-16 10-17 10-13 7-8 13-14 8-7 13-10 14-9 14-8 24-10 20-6 23-4zm5 120-14 3-16 7-11 7-12 11-7 9-8 14-5 14-2 11v23l4 17 8 17 10 13 11 10 11 7 10 5 12 4 12 2h17l15-3 14-5 12-7 10-8 8-8 7-10 7-14 4-13 2-18-1-15-4-15-5-12-9-14-7-8-14-11-16-8-14-4-6-1zm7 347-22 2-25 6-15 6-16 8-14 9-10 8-10 9-10 10-13 18-10 17-8 19-6 21-3 26-1 14 1 3h332l1-1v-21l-3-21-5-19-10-24-11-18-11-14-13-13-11-10-18-12-15-8-21-8-22-5-23-2z" fill="#FEFEFE"/>
<path transform="translate(284,1600)" d="m0 0 15 1 13 4 11 7 10 9 7 10 5 12 2 8 2 26 3 17 6 20 9 19 10 15 11 13 9 9 13 10 15 9 17 8 20 6 20 3 99 1h311l18 2 13 5 11 8 12 11 10 9 8 8 8 7 9 9 8 7 8 8 8 7 16 15 4-1 12-11 7-7 8-7 9-9 8-7 7-7 8-7 7-7 8-7 8-8 12-9 10-5 11-3 10-1h275l139-1 19-3 20-6 21-10 15-10 13-11 9-9 10-13 9-15 7-15 6-20 3-15 2-28 5-16 6-10 10-11 10-7 13-5 16-2 16 2 12 5 9 6 7 6 6 8 7 14 3 12v23l-4 32-6 25-5 16-8 20-9 19-11 18-12 17-11 13-7 8-16 16-14 11-13 10-20 12-21 11-23 9-24 7-21 4-26 3-392 1-8 7-17 16-16 15-3 3h-2v2l-8 7-9 9-8 7-10 10-8 7-8 8-8 7-12 10-10 6-11 4-9 2h-9l-14-3-12-5-12-9-34-32-26-24-10-10-8-7-9-9-8-7-15-14-394-1-20-2-22-4-22-6-22-8-27-13-19-12-16-12-11-9-27-27-11-14-10-14-11-19-8-16-8-19-8-26-5-25-2-14-1-13v-19l3-14 7-14 8-10 12-9 11-5 7-2z" fill="#FEFEFE"/>
<path transform="translate(908,1020)" d="m0 0 247 1 13 4 14 9 9 9 8 13 4 13 1 21v254h64l20 1 11 3 10 5 9 7 9 10 7 14 3 11v18l-3 12-6 12-8 10-10 11-7 8-12 13-9 10-11 12-18 20-7 8-14 15-7 8-11 12-7 8-13 14-7 8-11 12-7 8-13 14-1 2h-2l-2 4-14 15-7 8-13 14-7 8-11 12-9 10-11 12-9 10-9 9-12 7-12 4-7 1h-14l-12-3-14-7-10-9-8-8-7-8-12-13-9-10-11-12-7-8-22-24-18-20-7-8-14-15-9-10-7-8-22-24-9-10-7-8-11-12-9-10-12-13-7-8-11-12-9-10-11-12-7-8-9-10-7-10-6-14-2-11v-9l3-14 4-9 6-10 11-11 12-7 12-4 11-1h75v-270l4-16 6-11 9-11 13-9 12-5 4-1zm57 120-1 5-1 267-3 12-4 9-7 11-9 8-16 8-16 4v4l13 13 7 8 11 12 18 20 11 12 7 8 13 14 7 8 11 12 7 8 7 7 3 4 4-2 9-10 12-13 7-8 22-24 7-8 10-11 7-8 15-16 7-8 9-10 2-4h2l5-7-18-5-12-6-10-8-9-12-5-12-2-9-1-13-1-260z" fill="#FEFEFE"/>
</svg>
